<svg width="50" height="50" viewBox="-576,-200,1152,400" style="max-width: 100%; height: 50; height: intrinsic;" xmlns="http://www.w3.org/2000/svg" xmlns:xlink="http://www.w3.org/1999/xlink"><g stroke="#999" stroke-opacity="0.6" stroke-width="1.5" stroke-linecap="round"><line x1="3.8883863403894923" y1="1.5250292974453188" x2="-24.806970710093463" y2="17.429077384658356"/><line x1="3.8883863403894923" y1="1.5250292974453188" x2="3.9524969504143486" y2="-30.662790599364516"/><line x1="3.8883863403894923" y1="1.5250292974453188" x2="15.497936365958292" y2="32.616381812808605"/><line x1="3.8883863403894923" y1="1.5250292974453188" x2="-28.505537273387397" y2="-2.278462105756502"/><line x1="3.8883863403894923" y1="1.5250292974453188" x2="30.53171556948123" y2="-18.306145395411374"/><line x1="3.8883863403894923" y1="1.5250292974453188" x2="-5.334394621441579" y2="32.89815682710975"/><line x1="3.8883863403894923" y1="1.5250292974453188" x2="-14.626022099810232" y2="-26.845590350080826"/><line x1="3.8883863403894923" y1="1.5250292974453188" x2="36.48509600776723" y2="11.49232766722257"/><line x1="3.8883863403894923" y1="1.5250292974453188" x2="-35.247664462404586" y2="10.827049983426717"/><line x1="3.8883863403894923" y1="1.5250292974453188" x2="21.11126251821395" y2="-29.297578617487527"/><line x1="3.8883863403894923" y1="1.5250292974453188" x2="11.61944881730211" y2="41.8853477522388"/><line x1="3.8883863403894923" y1="1.5250292974453188" x2="-23.84022730800595" y2="-17.750579596607245"/><line x1="3.8883863403894923" y1="1.5250292974453188" x2="38.04322994962252" y2="-4.277433839289123"/><line x1="3.8883863403894923" y1="1.5250292974453188" x2="-20.394850283720167" y2="29.120630780986094"/><line x1="3.8883863403894923" y1="1.5250292974453188" x2="1.5851362125808373" y2="-40.42787611102403"/><line x1="3.8883863403894923" y1="1.5250292974453188" x2="29.438850773103013" y2="25.052531365407017"/><line x1="3.8883863403894923" y1="1.5250292974453188" x2="-38.68468411696531" y2="-0.9018288695317851"/><line x1="3.8883863403894923" y1="1.5250292974453188" x2="32.39838837859056" y2="-28.85934334771015"/><line x1="3.8883863403894923" y1="1.5250292974453188" x2="-0.36648068798527006" y2="42.1659204443312"/><line x1="3.8883863403894923" y1="1.5250292974453188" x2="-25.826857071201687" y2="-28.898525808861656"/><line x1="3.8883863403894923" y1="1.5250292974453188" x2="44.79397125830095" y2="3.945695726037591"/><line x1="3.8883863403894923" y1="1.5250292974453188" x2="-31.78873242569329" y2="24.931081077609022"/><line x1="3.8883863403894923" y1="1.5250292974453188" x2="14.95241890130735" y2="-38.059554992964394"/><line x1="3.8883863403894923" y1="1.5250292974453188" x2="26.8843845619844" y2="35.65108354437084"/><line x1="3.8883863403894923" y1="1.5250292974453188" x2="-34.61354118213419" y2="-14.50458276481306"/><line x1="3.8883863403894923" y1="1.5250292974453188" x2="41.3293445203364" y2="-14.969161056739068"/><line x1="3.8883863403894923" y1="1.5250292974453188" x2="-15.079823528677853" y2="38.3613193509667"/><line x1="3.8883863403894923" y1="1.5250292974453188" x2="-10.750255213468385" y2="-36.8094629590258"/><line x1="3.8883863403894923" y1="1.5250292974453188" x2="39.7875206971324" y2="21.678896353114695"/></g><g fill="currentColor" stroke="#fff" stroke-opacity="1" stroke-width="1.5"><circle r="5" fill="#4e79a7" cx="3.8883863403894923" cy="1.5250292974453188"><title>Reduction in BACE1 decreases body weight, protects against diet-induced obesity and enhances insulin sensitivity in mice (Cited Works)</title></circle><circle r="5" fill="#f28e2c" cx="-24.806970710093463" cy="17.429077384658356"><title>076-641-402-312-988 (Citing Patents)</title></circle><circle r="5" fill="#f28e2c" cx="3.9524969504143486" cy="-30.662790599364516"><title>102-485-198-725-150 (Citing Patents)</title></circle><circle r="5" fill="#f28e2c" cx="15.497936365958292" cy="32.616381812808605"><title>168-829-456-947-639 (Citing Patents)</title></circle><circle r="5" fill="#f28e2c" cx="-28.505537273387397" cy="-2.278462105756502"><title>098-813-369-162-741 (Citing Patents)</title></circle><circle r="5" fill="#f28e2c" cx="30.53171556948123" cy="-18.306145395411374"><title>023-180-369-416-862 (Citing Patents)</title></circle><circle r="5" fill="#f28e2c" cx="-5.334394621441579" cy="32.89815682710975"><title>189-473-046-734-005 (Citing Patents)</title></circle><circle r="5" fill="#f28e2c" cx="-14.626022099810232" cy="-26.845590350080826"><title>019-633-684-883-828 (Citing Patents)</title></circle><circle r="5" fill="#f28e2c" cx="36.48509600776723" cy="11.49232766722257"><title>174-501-376-407-235 (Citing Patents)</title></circle><circle r="5" fill="#f28e2c" cx="-35.247664462404586" cy="10.827049983426717"><title>129-062-448-949-030 (Citing Patents)</title></circle><circle r="5" fill="#f28e2c" cx="21.11126251821395" cy="-29.297578617487527"><title>162-916-741-322-002 (Citing Patents)</title></circle><circle r="5" fill="#f28e2c" cx="11.61944881730211" cy="41.8853477522388"><title>080-026-305-809-343 (Citing Patents)</title></circle><circle r="5" fill="#f28e2c" cx="-23.84022730800595" cy="-17.750579596607245"><title>016-698-167-713-829 (Citing Patents)</title></circle><circle r="5" fill="#f28e2c" cx="38.04322994962252" cy="-4.277433839289123"><title>091-325-080-234-401 (Citing Patents)</title></circle><circle r="5" fill="#f28e2c" cx="-20.394850283720167" cy="29.120630780986094"><title>032-206-614-235-635 (Citing Patents)</title></circle><circle r="5" fill="#f28e2c" cx="1.5851362125808373" cy="-40.42787611102403"><title>143-271-017-351-983 (Citing Patents)</title></circle><circle r="5" fill="#f28e2c" cx="29.438850773103013" cy="25.052531365407017"><title>169-312-245-869-778 (Citing Patents)</title></circle><circle r="5" fill="#f28e2c" cx="-38.68468411696531" cy="-0.9018288695317851"><title>089-818-979-077-305 (Citing Patents)</title></circle><circle r="5" fill="#f28e2c" cx="32.39838837859056" cy="-28.85934334771015"><title>187-517-157-601-239 (Citing Patents)</title></circle><circle r="5" fill="#f28e2c" cx="-0.36648068798527006" cy="42.1659204443312"><title>111-583-988-147-450 (Citing Patents)</title></circle><circle r="5" fill="#f28e2c" cx="-25.826857071201687" cy="-28.898525808861656"><title>058-026-435-099-506 (Citing Patents)</title></circle><circle r="5" fill="#f28e2c" cx="44.79397125830095" cy="3.945695726037591"><title>153-651-762-444-327 (Citing Patents)</title></circle><circle r="5" fill="#f28e2c" cx="-31.78873242569329" cy="24.931081077609022"><title>159-766-711-047-610 (Citing Patents)</title></circle><circle r="5" fill="#f28e2c" cx="14.95241890130735" cy="-38.059554992964394"><title>058-933-099-316-100 (Citing Patents)</title></circle><circle r="5" fill="#f28e2c" cx="26.8843845619844" cy="35.65108354437084"><title>023-452-662-674-373 (Citing Patents)</title></circle><circle r="5" fill="#f28e2c" cx="-34.61354118213419" cy="-14.50458276481306"><title>047-432-030-246-04X (Citing Patents)</title></circle><circle r="5" fill="#f28e2c" cx="41.3293445203364" cy="-14.969161056739068"><title>139-008-712-602-518 (Citing Patents)</title></circle><circle r="5" fill="#f28e2c" cx="-15.079823528677853" cy="38.3613193509667"><title>137-720-748-139-162 (Citing Patents)</title></circle><circle r="5" fill="#f28e2c" cx="-10.750255213468385" cy="-36.8094629590258"><title>192-136-893-476-749 (Citing Patents)</title></circle><circle r="5" fill="#f28e2c" cx="39.7875206971324" cy="21.678896353114695"><title>172-890-893-515-719 (Citing Patents)</title></circle></g></svg>