<svg viewBox="-1,-1,50,50" width="50" height="50" style="max-width: 100%; height: auto; height: intrinsic;" font-family="sans-serif" font-size="10" text-anchor="middle" xmlns="http://www.w3.org/2000/svg" xmlns:xlink="http://www.w3.org/1999/xlink"><a transform="translate(24,24)"><circle fill="#fff" stroke="#bbb" r="24"/></a><a transform="translate(26.788509270952794,41.62147263719167)"><circle fill="#fff" stroke="#bbb" r="5.407316163682089"/></a><a transform="translate(34.406949387724694,33.97063716120847)"><circle fill="#fff" stroke="#bbb" r="4.637774804273998"/></a><a transform="translate(19.237458033525254,4.8511513982659835)"><circle fill="#fff" stroke="#bbb" r="3.5158458880061287"/></a><a transform="translate(41.61256149064067,32.182204818639924)"><circle fill="#fff" stroke="#bbb" r="2.0345233090120454"/></a><a transform="translate(41.31001732863487,15.337979468782711)"><circle fill="#fff" stroke="#bbb" r="0.9983176055691501"/></a><a transform="translate(18.156084253858236,40.72040405252541)"><circle fill="#fff" stroke="#bbb" r="2.5200674088284485"/></a><a transform="translate(34.93532210677773,10.776213837864034)"><circle fill="#fff" stroke="#bbb" r="6.088519022097493"/></a><a transform="translate(25.893711630893502,7.330840176659379)"><circle fill="#fff" stroke="#bbb" r="2.835350390368378"/></a><a transform="translate(39.367120837398886,23.26382438787923)"><circle fill="#fff" stroke="#bbb" r="6.410247132053285"/></a><a transform="translate(18.019829701019006,23.26382438787923)"><circle fill="#fff" stroke="#bbb" r="14.185102357096115"/></a><a transform="translate(29.51652539623197,41.62147263719167)"><circle fill="#fff" stroke="#bbb" r="1.9273583911724343"/></a><a transform="translate(24.48518005616512,41.62147263719167)"><circle fill="#fff" stroke="#bbb" r="2.3520453016639387"/></a><a transform="translate(27.335664535224275,44.67730710921293)"><circle fill="#fff" stroke="#bbb" r="1.0749346926000227"/></a><a transform="translate(36.77829357831317,35.855119981931736)"><circle fill="#ddd" r="0.5008559072509026"/></a><a transform="translate(35.65962830053337,36.92268438438551)"><circle fill="#ddd" r="0.29352251494042003"/></a><a transform="translate(33.36152304282546,34.11888985810728)"><circle fill="#fff" stroke="#bbb" r="2.579801555137634"/></a><a transform="translate(33.32749526588959,37.574369714955886)"><circle fill="#ddd" r="0.12390419438544746"/></a><a transform="translate(33.3778513472575,30.510898303916264)"><circle fill="#ddd" r="0.2762852992708849"/></a><a transform="translate(37.98035447978225,35.276274233281306)"><circle fill="#ddd" r="0.08137365326196548"/></a><a transform="translate(34.672166564113304,30.745618916502377)"><circle fill="#ddd" r="0.28719908583846376"/></a><a transform="translate(34.48887860120755,37.55615939894229)"><circle fill="#ddd" r="0.28568025243602874"/></a><a transform="translate(36.708635411866844,32.54166500389707)"><circle fill="#ddd" r="0.36836483007205484"/></a><a transform="translate(37.2360215008319,34.11888985810728)"><circle fill="#ddd" r="0.5427552556383337"/></a><a transform="translate(37.91390164935385,32.867742314480665)"><circle fill="#ddd" r="0.12828998100716507"/></a><a transform="translate(35.812893464671085,31.44250862380256)"><circle fill="#ddd" r="0.29761396611752294"/></a><a transform="translate(18.599086107750722,4.904273730275383)"><circle fill="#fff" stroke="#bbb" r="2.1233258320111945"/></a><a transform="translate(20.84736265791776,2.8635507379117024)"><circle fill="#ddd" r="0.1610621763775564"/></a><a transform="translate(21.438974913144698,3.7810368534498395)"><circle fill="#ddd" r="0.17868561608622413"/></a><a transform="translate(20.016541336894306,2.2963603903229988)"><circle fill="#ddd" r="0.09296285469942929"/></a><a transform="translate(21.695993494311917,4.904273730275383)"><circle fill="#ddd" r="0.2216399073195233"/></a><a transform="translate(20.794007407840873,6.922802322039633)"><circle fill="#ddd" r="0.10670119754874821"/></a><a transform="translate(21.46516742276042,6.076688980319518)"><circle fill="#ddd" r="0.22134028132209796"/></a><a transform="translate(42.34014149971992,32.103228581177014)"><circle fill="#ddd" r="0.36092316636171773"/></a><a transform="translate(41.61196236155206,31.059444590380544)"><circle fill="#ddd" r="0.1598212736680908"/></a><a transform="translate(41.61312255692771,33.23363584490114)"><circle fill="#ddd" r="0.23115048582182776"/></a><a transform="translate(40.84198547133742,32.103228581177014)"><circle fill="#ddd" r="0.3852912147903009"/></a><a transform="translate(41.31001732863487,15.337979468782711)"><circle fill="#ddd" r="0.2463759583386725"/></a><a transform="translate(17.117359698396363,41.991850235679955)"><circle fill="#ddd" r="0.12632062736987962"/></a><a transform="translate(19.25241205938358,39.517214485577725)"><circle fill="#ddd" r="0.14036662979136932"/></a><a transform="translate(19.21409049754832,41.930752931439834)"><circle fill="#ddd" r="0.06858923910967689"/></a><a transform="translate(17.418695085660563,40.75633201713294)"><circle fill="#ddd" r="0.39347208601873523"/></a><a transform="translate(18.191844642913203,41.86230153336868)"><circle fill="#ddd" r="0.20400421858137816"/></a><a transform="translate(18.947808271047883,40.75633201713294)"><circle fill="#ddd" r="0.38369945213810996"/></a><a transform="translate(18.19169542059263,39.67886727396494)"><circle fill="#ddd" r="0.1806555675700064"/></a><a transform="translate(17.11839048520102,39.48854939060294)"><circle fill="#ddd" r="0.15745066536964078"/></a><a transform="translate(38.70668610336945,13.235424786104094)"><circle fill="#ddd" r="0.15437654667586498"/></a><a transform="translate(32.44054788472946,6.433478550446957)"><circle fill="#ddd" r="0.12306820473248908"/></a><a transform="translate(36.73859777433841,7.289551059290382)"><circle fill="#ddd" r="0.2395472882872258"/></a><a transform="translate(31.54491643309015,14.747848317153608)"><circle fill="#ddd" r="0.11463031756600313"/></a><a transform="translate(34.58805826707482,15.290722416528796)"><circle fill="#ddd" r="0.20655459483636943"/></a><a transform="translate(38.133512148398665,9.353929826750921)"><circle fill="#ddd" r="0.2743300784610345"/></a><a transform="translate(35.715170430026554,6.617506950108221)"><circle fill="#ddd" r="0.232866737386076"/></a><a transform="translate(39.65992751538283,12.890756899374354)"><circle fill="#ddd" r="0.10732135826199012"/></a><a transform="translate(37.559011958827284,8.217495142375828)"><circle fill="#ddd" r="0.24712305192785364"/></a><a transform="translate(36.7270747675307,6.180821068620372)"><circle fill="#ddd" r="0.1173009327156841"/></a><a transform="translate(38.13398919022962,12.202148180919991)"><circle fill="#ddd" r="0.2750548619657935"/></a><a transform="translate(35.72217421345394,14.932135185216424)"><circle fill="#ddd" r="0.2309590039561698"/></a><a transform="translate(34.56971838648969,6.2485750445751735)"><circle fill="#ddd" r="0.21859143878505163"/></a><a transform="translate(39.33127636421344,9.620165265429437)"><circle fill="#ddd" r="0.20072478021007845"/></a><a transform="translate(39.30132919601483,11.922347504674859)"><circle fill="#ddd" r="0.1734080507475165"/></a><a transform="translate(37.84537814520861,14.4338828798836)"><circle fill="#ddd" r="0.1338042742905515"/></a><a transform="translate(36.73806659059194,14.260198761429493)"><circle fill="#ddd" r="0.235104225461504"/></a><a transform="translate(31.532015810974872,6.817888407050042)"><circle fill="#ddd" r="0.11149988792530256"/></a><a transform="translate(33.68553458669669,10.777595496788537)"><circle fill="#fff" stroke="#bbb" r="3.643988259517865"/></a><a transform="translate(35.40645802320673,15.980007232378824)"><circle fill="#ddd" r="0.11149988792530256"/></a><a transform="translate(33.4478641876981,6.236494735746714)"><circle fill="#ddd" r="0.15138615225775745"/></a><a transform="translate(36.73535924052612,15.366845544506763)"><circle fill="#ddd" r="0.11960422207133292"/></a><a transform="translate(38.53415933552971,10.777595496788537)"><circle fill="#ddd" r="0.4526948420846718"/></a><a transform="translate(33.476681377838666,15.322050832291229)"><circle fill="#ddd" r="0.15332211520308692"/></a><a transform="translate(37.5581771373388,13.338363078508348)"><circle fill="#ddd" r="0.24679460937696387"/></a><a transform="translate(35.40721406471212,5.568980984064058)"><circle fill="#ddd" r="0.10800624943924941"/></a><a transform="translate(37.846989423065544,7.127067393105703)"><circle fill="#ddd" r="0.12874898061657314"/></a><a transform="translate(38.72026814976828,8.315651355340577)"><circle fill="#ddd" r="0.16633247912140858"/></a><a transform="translate(32.46159132242343,15.13221391839419)"><circle fill="#ddd" r="0.1274249004657895"/></a><a transform="translate(27.483879919274525,6.277825583494808)"><circle fill="#ddd" r="0.17619220619455295"/></a><a transform="translate(24.111117539021954,8.106643227790581)"><circle fill="#ddd" r="0.13931201958739045"/></a><a transform="translate(25.118435420617214,6.1992134740865374)"><circle fill="#ddd" r="0.21556827433409134"/></a><a transform="translate(26.32004743771435,6.262986649759306)"><circle fill="#ddd" r="0.23579322293711194"/></a><a transform="translate(25.128225115313484,8.472049203050295)"><circle fill="#ddd" r="0.18950039794669746"/></a><a transform="translate(26.95096508217598,7.347723089948136)"><circle fill="#ddd" r="0.2671397127157157"/></a><a transform="translate(24.455592847852692,7.1124519854978185)"><circle fill="#ddd" r="0.16092477082741058"/></a><a transform="translate(26.3203482062775,8.45005434712337)"><circle fill="#ddd" r="0.2508839327738433"/></a><a transform="translate(27.486089512140158,8.40272555129134)"><circle fill="#ddd" r="0.16387609870762632"/></a><a transform="translate(25.638587390176202,7.347723089948136)"><circle fill="#ddd" r="0.2932963320535865"/></a><a transform="translate(42.959280627138995,24.163039792665238)"><circle fill="#ddd" r="0.3489780268717637"/></a><a transform="translate(41.90401355825575,25.207803944032207)"><circle fill="#ddd" r="0.3840452139173312"/></a><a transform="translate(39.33816024675816,26.60333243904495)"><circle fill="#ddd" r="0.34811063144709636"/></a><a transform="translate(40.25698002249091,22.258735321805407)"><circle fill="#ddd" r="0.43029767754626697"/></a><a transform="translate(40.35663482631674,27.387172414234726)"><circle fill="#ddd" r="0.18513081174671855"/></a><a transform="translate(38.59319549305615,25.298297294929917)"><circle fill="#ddd" r="0.40264170601580035"/></a><a transform="translate(42.948079057478886,21.427968405117564)"><circle fill="#fff" stroke="#bbb" r="1.6341746515371502"/></a><a transform="translate(44.00894090474956,23.6434809191465)"><circle fill="#ddd" r="0.07028830121450032"/></a><a transform="translate(38.17249983335726,26.453837209869526)"><circle fill="#ddd" r="0.07515537229997613"/></a><a transform="translate(42.427208864846186,26.342512186508056)"><circle fill="#ddd" r="0.1135314958125424"/></a><a transform="translate(35.79829728801072,25.09345926823776)"><circle fill="#fff" stroke="#bbb" r="1.647811086111834"/></a><a transform="translate(40.25867640132186,25.28117781234115)"><circle fill="#ddd" r="0.510985538298495"/></a><a transform="translate(43.17456765088784,25.393301585026055)"><circle fill="#ddd" r="0.14803692255654113"/></a><a transform="translate(37.415632251378916,21.140567067361236)"><circle fill="#fff" stroke="#bbb" r="1.8712107569586371"/></a><a transform="translate(41.000089700967166,19.598411370072707)"><circle fill="#ddd" r="0.2863248095760311"/></a><a transform="translate(41.14698441940365,23.72264384570075)"><circle fill="#ddd" r="0.5309845347516715"/></a><a transform="translate(41.254891546172956,26.50962607458318)"><circle fill="#ddd" r="0.3186953193172906"/></a><a transform="translate(40.32588823988726,20.767120592370837)"><circle fill="#ddd" r="0.31096623491385206"/></a><a transform="translate(39.29411912597049,23.72264384570075)"><circle fill="#ddd" r="0.5699391114510112"/></a><a transform="translate(18.66896918517536,13.606699562119026)"><circle fill="#fff" stroke="#bbb" r="2.1786105408784464"/></a><a transform="translate(22.463066929305782,30.583644483639652)"><circle fill="#fff" stroke="#bbb" r="2.9715268052278727"/></a><a transform="translate(26.712545305916805,23.26382438787923)"><circle fill="#fff" stroke="#bbb" r="4.740445104967836"/></a><a transform="translate(26.73855205736765,15.95840535444404)"><circle fill="#fff" stroke="#bbb" r="1.8130785721460685"/></a><a transform="translate(22.23515532768822,17.142694982818185)"><circle fill="#fff" stroke="#bbb" r="2.091493930581761"/></a><a transform="translate(12.903413772435933,23.26382438787923)"><circle fill="#fff" stroke="#bbb" r="8.316744781282564"/></a><a transform="translate(18.286313230587808,31.167445167365642)"><circle fill="#ddd" r="0.4938879111980599"/></a><a transform="translate(30.10242681068107,41.47637066391488)"><circle fill="#ddd" r="0.24098971020733956"/></a><a transform="translate(29.52001026831931,42.55977988764028)"><circle fill="#ddd" r="0.237103022110131"/></a><a transform="translate(28.794828371833972,41.47637066391488)"><circle fill="#ddd" r="0.3146670814092817"/></a><a transform="translate(29.512548700823896,40.550741189751136)"><circle fill="#ddd" r="0.10467791180571802"/></a><a transform="translate(25.067844600078537,40.52703226520024)"><circle fill="#ddd" r="0.22829369436085195"/></a><a transform="translate(25.069856294077233,42.79306881648139)"><circle fill="#ddd" r="0.29072062777345425"/></a><a transform="translate(24.332370360213737,41.62347250095374)"><circle fill="#ddd" r="0.34003112699896926"/></a><a transform="translate(25.719668876334815,41.62347250095374)"><circle fill="#ddd" r="0.29532574189162825"/></a><a transform="translate(23.87091211653147,40.39057949587826)"><circle fill="#ddd" r="0.2244499818129952"/></a><a transform="translate(27.335664535224275,44.67730710921293)"><circle fill="#ddd" r="0.32299304536954526"/></a><a transform="translate(32.63960430217917,32.88653930241837)"><circle fill="#ddd" r="0.1710101943836613"/></a><a transform="translate(33.704683799696674,35.13955698877385)"><circle fill="#ddd" r="0.17374790026656783"/></a><a transform="translate(31.804421606774646,34.764031706669684)"><circle fill="#ddd" r="0.14240065686665068"/></a><a transform="translate(32.89339653783544,34.14326217873307)"><circle fill="#ddd" r="0.3591413245528483"/></a><a transform="translate(34.18468553204153,34.14326217873307)"><circle fill="#ddd" r="0.18020602242276124"/></a><a transform="translate(34.76898752458692,35.04549464444104)"><circle fill="#ddd" r="0.142762671105468"/></a><a transform="translate(34.781585211518816,33.234640876636405)"><circle fill="#ddd" r="0.1549962481349821"/></a><a transform="translate(32.650729944696735,35.388082267207)"><circle fill="#ddd" r="0.15716941953860372"/></a><a transform="translate(33.704654377184085,33.14721723901945)"><circle fill="#ddd" r="0.17353557231205877"/></a><a transform="translate(18.099370797246593,3.7386033389865503)"><circle fill="#ddd" r="0.10311652664238077"/></a><a transform="translate(19.64403075854392,4.963302983629244)"><circle fill="#ddd" r="0.2516469456774334"/></a><a transform="translate(18.26027580841823,4.963302983629244)"><circle fill="#ddd" r="0.3801663572177797"/></a><a transform="translate(19.064261228215763,3.9784948573499745)"><circle fill="#ddd" r="0.1392061191391042"/></a><a transform="translate(19.068137456495847,5.99841524992323)"><circle fill="#ddd" r="0.18094106023552423"/></a><a transform="translate(35.56660423074865,11.6531360203368)"><circle fill="#ddd" r="0.09351644528627923"/></a><a transform="translate(35.0488251653255,12.502851405126153)"><circle fill="#ddd" r="0.06976178967208953"/></a><a transform="translate(31.428185524304094,9.21360919730275)"><circle fill="#ddd" r="0.0650581323870632"/></a><a transform="translate(36.427463378101,10.084662018818022)"><circle fill="#ddd" r="0.06391466663417483"/></a><a transform="translate(33.7108268342071,8.444892272474142)"><circle fill="#ddd" r="0.0656223938839487"/></a><a transform="translate(31.80490047745742,11.649771768060425)"><circle fill="#ddd" r="0.09367401312385755"/></a><a transform="translate(35.116266540296884,10.82911104021177)"><circle fill="#ddd" r="0.09359526236330097"/></a><a transform="translate(34.15261409500511,9.228917286268544)"><circle fill="#ddd" r="0.08236440385146375"/></a><a transform="translate(32.74426705009245,10.022756045212773)"><circle fill="#ddd" r="0.09430165172316225"/></a><a transform="translate(33.685966978526274,11.68146810479293)"><circle fill="#ddd" r="0.0960065032741712"/></a><a transform="translate(34.166148607741064,10.858308295328818)"><circle fill="#ddd" r="0.10502953493838366"/></a><a transform="translate(33.22351809114959,12.488802588283637)"><circle fill="#ddd" r="0.08245388177448357"/></a><a transform="translate(32.250663576844474,10.822815976443477)"><circle fill="#ddd" r="0.09383131636333165"/></a><a transform="translate(33.68596617720406,10.035683791767308)"><circle fill="#ddd" r="0.0955445607226936"/></a><a transform="translate(35.937967792613144,9.224780205317584)"><circle fill="#ddd" r="0.06460317483064333"/></a><a transform="translate(31.34133338822723,10.866443049253213)"><circle fill="#ddd" r="0.06460317483064333"/></a><a transform="translate(33.22504682879121,9.215475081394779)"><circle fill="#ddd" r="0.0933586115108546"/></a><a transform="translate(32.743795302882376,11.693601670333024)"><circle fill="#ddd" r="0.09430165172316225"/></a><a transform="translate(34.62786789580394,11.689656202584755)"><circle fill="#ddd" r="0.09398835633323215"/></a><a transform="translate(34.15199945770964,12.478635769151689)"><circle fill="#ddd" r="0.07544914034744529"/></a><a transform="translate(32.32024923886144,12.504965855891127)"><circle fill="#ddd" r="0.06901792602750682"/></a><a transform="translate(35.05415408112921,9.219154582377653)"><circle fill="#ddd" r="0.0672867932596175"/></a><a transform="translate(33.20247622802346,10.858308295328818)"><circle fill="#ddd" r="0.10670119754874821"/></a><a transform="translate(35.936443965053265,12.486264247196427)"><circle fill="#ddd" r="0.06607033351326512"/></a><a transform="translate(33.70307206083046,13.25932016693723)"><circle fill="#ddd" r="0.07316678227227259"/></a><a transform="translate(34.62747585419567,10.026653094317734)"><circle fill="#ddd" r="0.09406677800422476"/></a><a transform="translate(36.02525312539472,10.867497481701681)"><circle fill="#ddd" r="0.06425984286144953"/></a><a transform="translate(32.31246253942489,9.217720583915376)"><circle fill="#ddd" r="0.0672867932596175"/></a><a transform="translate(35.54374204420314,10.019172455927679)"><circle fill="#ddd" r="0.07028830121450032"/></a><a transform="translate(31.4331673889973,12.482595235981895)"><circle fill="#ddd" r="0.06640430531354545"/></a><a transform="translate(31.825872981141696,10.008981489766455)"><circle fill="#ddd" r="0.07225406318828519"/></a><a transform="translate(30.942396764445732,10.08325212854346)"><circle fill="#ddd" r="0.062396841575534004"/></a><a transform="translate(42.43726095662744,21.427968405117564)"><circle fill="#ddd" r="0.37141490345523076"/></a><a transform="translate(43.69546478454936,21.427968405117564)"><circle fill="#ddd" r="0.13484727723620343"/></a><a transform="translate(36.397529154234626,24.7723981852111)"><circle fill="#ddd" r="0.21604663216446346"/></a><a transform="translate(35.80880012359859,25.785497968525913)"><circle fill="#ddd" r="0.2037510442031752"/></a><a transform="translate(35.206739585700284,24.7723981852111)"><circle fill="#ddd" r="0.22280128913940148"/></a><a transform="translate(36.68083630182654,21.097335745903425)"><circle fill="#ddd" r="0.3064277331778787"/></a><a transform="translate(37.413636237208195,20.155928349919176)"><circle fill="#ddd" r="0.13462836917426996"/></a><a transform="translate(37.417547933534834,22.085577803606313)"><circle fill="#ddd" r="0.1742564317938455"/></a><a transform="translate(37.92301739766177,21.097335745903425)"><circle fill="#ddd" r="0.18381171542688365"/></a><a transform="translate(19.08461409352485,14.825896266004547)"><circle fill="#ddd" r="0.13856901685185102"/></a><a transform="translate(18.017651063171204,13.781922514799763)"><circle fill="#ddd" r="0.6022355639638248"/></a><a transform="translate(19.077626114547318,12.78922874330408)"><circle fill="#ddd" r="0.09805831843101209"/></a><a transform="translate(18.23986160718391,12.348013279212429)"><circle fill="#ddd" r="0.09684767548858296"/></a><a transform="translate(19.68623747993371,13.781922514799763)"><circle fill="#ddd" r="0.3144092055682006"/></a><a transform="translate(20.661302981675835,31.165134109535707)"><circle fill="#ddd" r="0.17756791448211906"/></a><a transform="translate(21.374512343835036,32.08881561771557)"><circle fill="#ddd" r="0.23747592355487157"/></a><a transform="translate(24.540704948730266,30.530083462857107)"><circle fill="#ddd" r="0.14125685796745133"/></a><a transform="translate(21.36028463767786,29.602944095786572)"><circle fill="#ddd" r="0.26229285937639873"/></a><a transform="translate(23.86700012223803,32.038699304475934)"><circle fill="#ddd" r="0.1976521863448121"/></a><a transform="translate(23.86451995798957,29.66554874443802)"><circle fill="#ddd" r="0.20436535219487093"/></a><a transform="translate(22.639874215845968,29.695643502273512)"><circle fill="#ddd" r="0.26870846504832"/></a><a transform="translate(20.391366660712933,30.165346751546725)"><circle fill="#ddd" r="0.1060774112498771"/></a><a transform="translate(22.639948461943703,32.02735333030409)"><circle fill="#ddd" r="0.27751028106249176"/></a><a transform="translate(23.35091484333634,30.856321019314557)"><circle fill="#ddd" r="0.34050787726777487"/></a><a transform="translate(21.90576716451499,30.856321019314557)"><circle fill="#ddd" r="0.3526981543230951"/></a><a transform="translate(26.982616640515836,22.471673082835377)"><circle fill="#ddd" r="0.5504313315147047"/></a><a transform="translate(28.825198344404075,22.471673082835377)"><circle fill="#ddd" r="0.5402087251430596"/></a><a transform="translate(26.36963743968512,20.893493644271466)"><circle fill="#ddd" r="0.39066979713408156"/></a><a transform="translate(25.542205220983238,21.976918425294258)"><circle fill="#ddd" r="0.22063957165568032"/></a><a transform="translate(27.914070835935636,24.055024887234413)"><circle fill="#ddd" r="0.5346381411609644"/></a><a transform="translate(24.98836695926565,24.740555799890284)"><circle fill="#fff" stroke="#bbb" r="1.71836543676135"/></a><a transform="translate(27.913366993031715,21.036993849326382)"><circle fill="#ddd" r="0.4077734248619439"/></a><a transform="translate(29.520549549742984,23.931312549967373)"><circle fill="#ddd" r="0.32465532800472896"/></a><a transform="translate(29.45118208750119,20.91822541355643)"><circle fill="#ddd" r="0.3826795616227637"/></a><a transform="translate(26.169325108053528,15.925867047476753)"><circle fill="#ddd" r="0.18469215977239128"/></a><a transform="translate(27.2724686264914,15.925867047476753)"><circle fill="#ddd" r="0.16650971143500257"/></a><a transform="translate(26.738795548236062,16.861157701876095)"><circle fill="#ddd" r="0.15838454464628954"/></a><a transform="translate(26.738300464876396,15.025615909185465)"><circle fill="#ddd" r="0.12834744572718326"/></a><a transform="translate(21.466517581124407,16.98366376364526)"><circle fill="#ddd" r="0.5546351449765884"/></a><a transform="translate(22.457248401743758,18.19828114308252)"><circle fill="#ddd" r="0.26085516400542863"/></a><a transform="translate(23.16716569378995,16.98366376364526)"><circle fill="#ddd" r="0.39407132045847576"/></a><a transform="translate(14.585678230694356,19.886955206022005)"><circle fill="#fff" stroke="#bbb" r="1.7543895568054748"/></a><a transform="translate(14.704325930446503,28.39959933622604)"><circle fill="#fff" stroke="#bbb" r="2.122425995251709"/></a><a transform="translate(10.96466559517987,17.734973757594187)"><circle fill="#fff" stroke="#bbb" r="1.7058839686413705"/></a><a transform="translate(9.268079579690163,28.67817242588442)"><circle fill="#ddd" r="0.1377149623872172"/></a><a transform="translate(16.076998787229698,23.92908983306979)"><circle fill="#fff" stroke="#bbb" r="1.8021359648680426"/></a><a transform="translate(9.648299005622757,23.92908983306979)"><circle fill="#fff" stroke="#bbb" r="3.8746221695084215"/></a><a transform="translate(17.094479065808827,26.479312659110963)"><circle fill="#ddd" r="0.1916285957392551"/></a><a transform="translate(11.552149394519754,28.449273955803672)"><circle fill="#ddd" r="0.2782002761323108"/></a><a transform="translate(16.967331632878704,21.271609478448863)"><circle fill="#ddd" r="0.24858084216193707"/></a><a transform="translate(10.35263444225291,28.699031361928093)"><circle fill="#ddd" r="0.19509882139953272"/></a><a transform="translate(8.785243125239266,19.208039037897585)"><circle fill="#ddd" r="0.17272634569768844"/></a><a transform="translate(25.012745968212506,25.60517747977147)"><circle fill="#ddd" r="0.1014584807480305"/></a><a transform="translate(24.30929990691654,24.708113709788286)"><circle fill="#ddd" r="0.2865822265205666"/></a><a transform="translate(25.010235789638923,23.84655138153721)"><circle fill="#ddd" r="0.07215193725287776"/></a><a transform="translate(25.529861832793344,24.708113709788286)"><circle fill="#ddd" r="0.18203805212575733"/></a><a transform="translate(15.269200220603864,19.588215644470264)"><circle fill="#ddd" r="0.2564937311390954"/></a><a transform="translate(13.95561515278133,19.588215644470264)"><circle fill="#ddd" r="0.3051496894529602"/></a><a transform="translate(14.65900960649482,20.660567333623128)"><circle fill="#ddd" r="0.22536798147987144"/></a><a transform="translate(15.210549376295068,29.43659618380718)"><circle fill="#ddd" r="0.2165239331802281"/></a><a transform="translate(15.8300999152755,28.393565138299095)"><circle fill="#ddd" r="0.24469419152563399"/></a><a transform="translate(14.586430556525611,28.393565138299095)"><circle fill="#ddd" r="0.24703351999377776"/></a><a transform="translate(14.139759477045853,27.326429075146727)"><circle fill="#ddd" r="0.1578715946780929"/></a><a transform="translate(15.210451107091052,27.411851202606616)"><circle fill="#ddd" r="0.1642805652184492"/></a><a transform="translate(10.364113153565336,17.4235176068189)"><circle fill="#ddd" r="0.2774305558185014"/></a><a transform="translate(11.041040500710128,18.468906262674665)"><circle fill="#ddd" r="0.21604663216446346"/></a><a transform="translate(11.620970127397085,17.4235176068189)"><circle fill="#ddd" r="0.22748477078276857"/></a><a transform="translate(15.46657927484822,23.66021101393038)"><circle fill="#ddd" r="0.38318022447472605"/></a><a transform="translate(16.841494566206155,23.66021101393038)"><circle fill="#ddd" r="0.23979341965273193"/></a><a transform="translate(16.28760179909687,24.73491218514713)"><circle fill="#ddd" r="0.21730579465565622"/></a><a transform="translate(7.408412864083905,23.346039705459994)"><circle fill="#ddd" r="0.31492474608903614"/></a><a transform="translate(12.482339478350806,24.485974930238076)"><circle fill="#ddd" r="0.2344446571677639"/></a><a transform="translate(9.710480094763131,22.238542572967997)"><circle fill="#ddd" r="0.3706796047631149"/></a><a transform="translate(9.710756861620753,24.95217844425136)"><circle fill="#ddd" r="0.42073200172502045"/></a><a transform="translate(6.864787076140983,24.564675714232912)"><circle fill="#ddd" r="0.2675258725433188"/></a><a transform="translate(8.186004700562615,24.93324713354289)"><circle fill="#ddd" r="0.3521960330752661"/></a><a transform="translate(11.940064135825613,23.355049108228663)"><circle fill="#ddd" r="0.2678288932446842"/></a><a transform="translate(9.019588061988763,21.091580574922762)"><circle fill="#ddd" r="0.21635358940971705"/></a><a transform="translate(11.223684556654234,24.90731490045438)"><circle fill="#ddd" r="0.3409190796083469"/></a><a transform="translate(8.894718398983846,23.566239935831426)"><circle fill="#ddd" r="0.43566223686688926"/></a><a transform="translate(10.417636513783462,21.12015735980573)"><circle fill="#ddd" r="0.2005777829144851"/></a><a transform="translate(10.509057960687267,23.566239935831426)"><circle fill="#ddd" r="0.4267356776060539"/></a><a transform="translate(8.879816369194268,25.933602189645473)"><circle fill="#ddd" r="0.11327140040601316"/></a><a transform="translate(11.198835607760167,22.183278229657226)"><circle fill="#ddd" r="0.3667599217528196"/></a><a transform="translate(8.221577303684507,22.163636414078287)"><circle fill="#ddd" r="0.36816459913370125"/></a></svg>